<?xml version="1.0" encoding="UTF-8"?>
<svg version="1.1" xmlns="http://www.w3.org/2000/svg" width="446" height="446">
<path d="M0 0 C147.18 0 294.36 0 446 0 C446 147.18 446 294.36 446 446 C298.82 446 151.64 446 0 446 C0 298.82 0 151.64 0 0 Z " fill="#0B61EF" transform="translate(0,0)"/>
<path d="M0 0 C147.18 0 294.36 0 446 0 C446 147.18 446 294.36 446 446 C298.82 446 151.64 446 0 446 C0 298.82 0 151.64 0 0 Z M201.25 40.9375 C199.20064092 42.28533886 197.15115952 43.63299175 195.1015625 44.98046875 C193.56677246 45.99246338 193.56677246 45.99246338 192.00097656 47.02490234 C187.55417798 49.95157014 183.0904129 52.85184485 178.625 55.75 C177.80265869 56.28439697 176.98031738 56.81879395 176.13305664 57.36938477 C170.30292059 61.15754951 164.46534364 64.9341176 158.62548828 68.70727539 C153.70497883 71.88929577 148.7973061 75.09059203 143.89257812 78.296875 C134.85438909 84.20434764 125.78994966 90.06699496 116.6875 95.875 C108.35078782 101.19775578 100.03583771 106.55217211 91.75332642 111.95880127 C90.12028598 113.0247798 88.48630742 114.08932072 86.85229492 115.15380859 C72.10624388 123.82011719 72.10624388 123.82011719 62 137 C61.70138349 139.03914152 61.70138349 139.03914152 61.73993778 141.19680977 C61.73287219 142.03113852 61.7258066 142.86546726 61.7185269 143.7250787 C61.72094198 144.63654278 61.72335707 145.54800686 61.72584534 146.48709106 C61.72060866 147.45942212 61.71537198 148.43175318 61.70997661 149.43354881 C61.69494192 152.70069493 61.69427069 155.96768491 61.69360352 159.23486328 C61.68598422 161.57388067 61.67755712 163.91289555 61.66838074 166.25190735 C61.64640264 172.61371409 61.63763205 178.97547275 61.63255429 185.33731318 C61.62891378 189.31208906 61.62267523 193.28685231 61.6155529 197.26162338 C61.59598538 208.27294414 61.57958281 219.28425591 61.57667637 230.29559517 C61.5764888 231.00019815 61.57630123 231.70480114 61.57610798 232.43075573 C61.57574173 233.85909168 61.57537803 235.28742763 61.57501686 236.71576358 C61.57483405 237.42476668 61.57465124 238.13376977 61.57446289 238.86425781 C61.57428234 239.57412963 61.57410179 240.28400145 61.57391577 241.01538454 C61.5703767 252.50917612 61.5433718 264.00278005 61.505965 275.49650659 C61.4678414 287.30532113 61.44851858 299.11404268 61.44821686 310.92292011 C61.44763309 317.54974142 61.43867813 324.17636549 61.41021919 330.80313492 C61.3840367 337.03961136 61.38183493 343.27564538 61.39787483 349.51215172 C61.3996893 351.79779589 61.39299889 354.0834655 61.37705612 356.36905479 C61.35657354 359.49689328 61.36716143 362.62318714 61.38526917 365.75100708 C61.3720692 366.64908683 61.35886923 367.54716658 61.34526926 368.47246087 C61.43327441 375.15800929 63.26367561 380.42946003 67 386 C71.46196871 390.27288833 75.82712911 392.12191768 81.95392132 392.13422108 C83.49688319 392.14090784 83.49688319 392.14090784 85.07101601 392.14772969 C86.77146741 392.14745315 86.77146741 392.14745315 88.50627136 392.14717102 C90.3086214 392.15268605 90.3086214 392.15268605 92.14738256 392.1583125 C95.48863763 392.16744163 98.82984358 392.17204953 102.17110646 392.17470181 C105.77247515 392.17860442 109.3738296 392.1881828 112.97518921 392.19691467 C121.67556916 392.21668046 130.37595029 392.22674551 139.07634708 392.23564246 C143.17317068 392.24002524 147.26999299 392.24539208 151.36681557 392.25063133 C164.98506368 392.26764384 178.60331099 392.28213807 192.22156811 392.28938007 C195.75586638 392.29128998 199.29016464 392.29321031 202.82446289 392.29516602 C203.70289926 392.29564976 204.58133563 392.2961335 205.48639128 392.2966319 C219.71689428 392.30493242 233.94731323 392.33026961 248.17777952 392.36274669 C262.78671513 392.39581579 277.39560803 392.4138287 292.00458127 392.41702431 C300.20745989 392.41918957 308.41021594 392.4279404 316.61305809 392.45348549 C323.59895187 392.47519048 330.58469331 392.48324394 337.57061698 392.47351871 C341.13419193 392.46897335 344.69745256 392.47087347 348.26098442 392.49028015 C352.12705688 392.51115235 355.9926962 392.50092848 359.85881042 392.48774719 C360.98129108 392.49871644 362.10377174 392.50968568 363.26026696 392.52098733 C370.97340735 392.45744994 376.36015784 391.25275774 382.27734375 385.96484375 C382.82519531 385.29582031 383.37304688 384.62679688 383.9375 383.9375 C384.78634766 382.93009766 384.78634766 382.93009766 385.65234375 381.90234375 C387.74530668 378.94792942 388.12549181 376.43735375 388.13422108 372.92065144 C388.14090784 371.67029479 388.14090784 371.67029479 388.14772969 370.39467841 C388.14754533 369.47893725 388.14736097 368.56319609 388.14717102 367.6197052 C388.15268605 366.16037356 388.15268605 366.16037356 388.1583125 364.67156047 C388.1693657 361.39667631 388.17319596 358.12182386 388.17700195 354.84692383 C388.18326536 352.50481057 388.18991205 350.16269832 388.19691467 347.82058716 C388.21433562 341.44646745 388.22487942 335.07235525 388.2331202 328.69821763 C388.23826801 324.71726936 388.24434384 320.73632343 388.25063133 316.75537682 C388.26764333 305.73122521 388.28213703 294.70707459 388.28938007 283.68291187 C388.29128994 280.82238069 388.29321027 277.96184951 388.29516602 275.10131836 C388.29564976 274.39035642 388.2961335 273.67939447 388.2966319 272.94688823 C388.30493044 261.43231682 388.33026448 249.91784936 388.36274669 238.40332333 C388.39583131 226.57873788 388.41383012 214.75420522 388.41702431 202.92957324 C388.41918817 196.29164712 388.42836233 189.65385527 388.45348549 183.01597023 C388.47674101 176.77054202 388.48100937 170.52538656 388.47072411 164.2799263 C388.47022803 161.98860582 388.47656953 159.69727202 388.49028015 157.40599251 C388.5079637 154.27540538 388.50090963 151.14580077 388.48774719 148.01521301 C388.49871644 147.11062546 388.50968568 146.20603791 388.52098733 145.27403861 C388.45261656 138.52842718 386.83764774 133.16506863 382.2734375 128.07421875 C376.39476369 123.78012574 370.23069033 120.00827797 363.99731445 116.25634766 C359.10110651 113.3070906 354.29642432 110.26531583 349.5625 107.0625 C343.98045993 103.29048532 338.32951157 99.64666944 332.625 96.0625 C326.68343931 92.32897173 320.75976427 88.57249037 314.875 84.75 C307.83296752 80.17608348 300.76372107 75.64582995 293.6875 71.125 C286.10549588 66.27952068 278.53792828 61.41376633 271 56.5 C263.26087865 51.46229258 255.51328566 46.43788936 247.75 41.4375 C246.70199219 40.75816406 245.65398437 40.07882813 244.57421875 39.37890625 C226.21854236 27.58390387 219.15704391 29.06412074 201.25 40.9375 Z " fill="#FEFCF6" transform="translate(0,0)"/>
<path d="M0 0 C6.56696147 3.34273459 12.70046923 7.16272889 18.83056641 11.24511719 C20.87598669 12.59300508 22.92156053 13.94065999 24.96728516 15.28808594 C25.96034668 15.94470215 26.9534082 16.60131836 27.9765625 17.27783203 C31.68526249 19.7254313 35.41061318 22.14644778 39.14306641 24.55761719 C40.12835327 25.19497803 40.12835327 25.19497803 41.13354492 25.84521484 C48.58894754 30.66146666 56.07068438 35.43670381 63.54882812 40.2175293 C70.12516234 44.42337083 76.68819045 48.64865005 83.23681641 52.89746094 C89.56383543 56.99785596 95.9157399 61.05907273 102.26806641 65.12011719 C110.71116409 70.51878323 119.14921396 75.92427316 127.54931641 81.38964844 C130.72249011 83.45175191 133.91423604 85.48279936 137.11181641 87.50683594 C138.02084717 88.08667236 138.92987793 88.66650879 139.86645508 89.26391602 C141.63048722 90.38910733 143.39867787 91.50781476 145.17163086 92.61889648 C151.20404549 96.48383852 155.57145835 100.07113372 157.76806641 107.12011719 C158.06132349 110.33170579 158.04213001 113.53124895 158.02876282 116.75437927 C158.03258836 117.73038702 158.03641391 118.70639476 158.04035538 119.7119785 C158.05068162 122.98536778 158.04669391 126.25858154 158.04272461 129.53198242 C158.04707127 131.87763634 158.05225426 134.22328883 158.05821228 136.56893921 C158.07161802 142.94282562 158.07217922 149.3166528 158.06964898 155.69055057 C158.06844527 161.68137983 158.07465451 167.67220075 158.08008244 173.6630267 C158.09095747 186.25273743 158.08879562 198.84242138 158.08269759 211.43213362 C158.07752802 222.94791301 158.08878497 234.46360781 158.10779581 245.97937047 C158.12717052 257.80627553 158.13543089 269.63314057 158.13167256 281.46006161 C158.12976001 288.09897832 158.13251771 294.73783205 158.1463871 301.37673759 C158.15893936 307.61888016 158.15704589 313.86085312 158.14397621 320.10299301 C158.14160526 322.39514663 158.14436358 324.68731209 158.15259933 326.97945213 C158.16302435 330.10612339 158.15499994 333.23222107 158.14228821 336.35887146 C158.14966249 337.26792046 158.15703678 338.17696945 158.16463453 339.11356539 C158.11250846 345.19950381 157.13944123 349.52053474 152.90087891 354.16699219 C152.23830078 354.72902344 151.57572266 355.29105469 150.89306641 355.87011719 C150.23564453 356.44246094 149.57822266 357.01480469 148.90087891 357.60449219 C144.94243653 360.41745124 141.38881789 361.36975411 136.56804943 361.37738609 C135.53542608 361.38383499 134.50280274 361.39028388 133.43888777 361.39692819 C132.31107919 361.39383099 131.18327061 361.39073378 130.02128601 361.38754272 C128.81801047 361.39207384 127.61473492 361.39660495 126.37499648 361.40127337 C123.03820243 361.41174522 119.70162389 361.41324295 116.36482871 361.41088462 C112.76485056 361.41047645 109.16490457 361.42151564 105.56494141 361.43099976 C98.51300933 361.44761074 91.4611107 361.45310935 84.4091607 361.45422451 C78.67660108 361.45517496 72.94405248 361.45928507 67.21149635 361.46562576 C50.95698592 361.48323858 34.7025019 361.49246459 18.44798186 361.49096482 C17.13362952 361.49084495 17.13362952 361.49084495 15.79272461 361.49072266 C14.91541924 361.49064089 14.03811388 361.49055913 13.1342235 361.49047489 C-1.08322458 361.48966202 -15.3005667 361.50879987 -29.51798413 361.53699939 C-44.11794883 361.56572905 -58.71786185 361.57953963 -73.31785554 361.57781184 C-81.51398994 361.57714795 -89.71001327 361.58263942 -97.90612221 361.60416794 C-104.88465644 361.62238085 -111.86302926 361.62672624 -118.84157697 361.61314909 C-122.40110919 361.60661987 -125.96033177 361.60650015 -129.51983452 361.62385559 C-133.38143373 361.64249008 -137.24258104 361.63003043 -141.10420227 361.61459351 C-142.22531869 361.62488063 -143.3464351 361.63516776 -144.50152475 361.64576662 C-152.22253901 361.57751253 -157.87717433 360.47487645 -163.54443359 354.80761719 C-167.74565872 348.11677718 -168.67218173 343.03716532 -168.62634277 335.25880432 C-168.63243388 334.28249886 -168.63852498 333.3061934 -168.64480066 332.30030292 C-168.66141364 329.03772927 -168.6566572 325.77554662 -168.65185547 322.51293945 C-168.65919671 320.17023311 -168.6677831 317.82753038 -168.67752075 315.48483276 C-168.6997381 309.12744283 -168.70266735 302.7701825 -168.70077324 296.41275907 C-168.70066865 291.77376958 -168.70711154 287.13480692 -168.7144008 282.49582405 C-168.71544028 281.83323687 -168.71647977 281.1706497 -168.71755075 280.48798412 C-168.71859428 279.82295515 -168.71963781 279.15792618 -168.72071296 278.47274482 C-168.73959981 265.90584723 -168.73856974 253.33900806 -168.73174363 240.77210217 C-168.72616766 229.28360925 -168.74699856 217.7953393 -168.7801041 206.30689848 C-168.81386166 194.50024948 -168.82900699 182.69370724 -168.82438707 170.88700908 C-168.82214468 164.26254258 -168.8278126 157.63825674 -168.85227966 151.01382637 C-168.87452696 144.78468675 -168.87268513 138.55601163 -168.85235214 132.32686996 C-168.84893873 130.04200188 -168.85404532 127.75710264 -168.86833572 125.47227669 C-168.88651259 122.35044701 -168.87378952 119.2301958 -168.85339355 116.1084137 C-168.8659114 115.20655462 -168.87842925 114.30469555 -168.89132643 113.37550741 C-168.79019616 106.14416828 -166.33926411 101.33636445 -161.33740234 96.15917969 C-156.08120023 92.28393495 -150.62066132 88.78357314 -145.0625 85.36132812 C-139.07306231 81.67238825 -133.17737041 77.85126481 -127.29443359 73.99511719 C-118.97406394 68.54535157 -110.61808778 63.15558462 -102.23193359 57.80761719 C-95.11260018 53.26551805 -88.02578916 48.6894592 -81.02392578 43.96850586 C-75.23973982 40.08667793 -69.35872402 36.35968757 -63.48193359 32.62011719 C-53.03505244 25.97072246 -42.70916915 19.15794354 -32.44189453 12.23535156 C-8.97029062 -3.53630796 -8.97029062 -3.53630796 0 0 Z M-13.73193359 27.99511719 C-14.41191406 28.42566406 -15.09189453 28.85621094 -15.79248047 29.29980469 C-23.44723012 34.18609761 -30.97742324 39.26464235 -38.52160645 44.31918335 C-45.71480461 49.13821303 -52.93348931 53.89142015 -60.30712891 58.43139648 C-69.10683073 63.86372421 -77.7216062 69.58645122 -86.37304688 75.25048828 C-90.71617231 78.09076622 -95.06743995 80.91845359 -99.41943359 83.74511719 C-100.22888428 84.27121582 -101.03833496 84.79731445 -101.87231445 85.33935547 C-106.04525648 88.05133037 -110.21977664 90.76084819 -114.39599609 93.46777344 C-122.26003849 98.56753074 -130.1158463 103.678157 -137.91943359 108.87011719 C-138.54954346 109.28865967 -139.17965332 109.70720215 -139.82885742 110.13842773 C-142.66764896 111.955231 -142.66764896 111.955231 -145.23193359 114.12011719 C-145.32987882 117.00267798 -145.36185765 119.86129795 -145.35218811 122.74427795 C-145.35304413 123.65762909 -145.35390015 124.57098022 -145.3547821 125.51200867 C-145.35644783 128.60673932 -145.35089667 131.70141681 -145.34545898 134.79614258 C-145.3451529 137.03902147 -145.3452857 139.28190047 -145.34582424 141.52477932 C-145.34605084 147.55386846 -145.34023747 153.58293792 -145.33321381 159.6120224 C-145.32753646 165.26083949 -145.32725165 170.90965169 -145.32653809 176.55847168 C-145.32128203 193.09985614 -145.307321 209.64123691 -145.29443359 226.18261719 C-145.27380859 263.12199219 -145.25318359 300.06136719 -145.23193359 338.12011719 C-52.83193359 338.12011719 39.56806641 338.12011719 134.76806641 338.12011719 C135.13931641 301.40761719 135.51056641 264.69511719 135.89306641 226.87011719 C136.05693848 215.28499023 136.22081055 203.69986328 136.38964844 191.76367188 C136.44985412 181.36421437 136.44985412 181.36421437 136.48605347 170.96466064 C136.50280493 166.33693633 136.57014832 161.71294051 136.66842651 157.08624268 C136.79229445 151.176177 136.82884836 145.27149801 136.80336738 139.36025476 C136.80869091 137.19630675 136.84418574 135.03216285 136.91393876 132.86933279 C137.52583305 121.79208011 137.52583305 121.79208011 133.03333807 112.11267948 C128.77699706 108.45878541 124.08125532 105.8133704 119.07895732 103.31924677 C115.4469532 101.43458681 112.09342164 99.15648962 108.70556641 96.87011719 C100.4873437 91.55567231 92.23422515 86.29508713 83.98852539 81.0234375 C77.4117466 76.81741021 70.84834035 72.59184255 64.29931641 68.34277344 C57.97229757 64.24237854 51.6204104 60.18113401 45.26806641 56.12011719 C36.10207205 50.25972268 26.95243936 44.37538474 17.82568359 38.45410156 C15.57060501 36.99209997 13.31401873 35.53244613 11.05712891 34.07324219 C10.27724609 33.56897705 9.49736328 33.06471191 8.69384766 32.54516602 C7.1991176 31.57876213 5.70432924 30.61244841 4.20947266 29.64624023 C3.54044922 29.21351807 2.87142578 28.7807959 2.18212891 28.33496094 C1.59383301 27.95460693 1.00553711 27.57425293 0.39941406 27.18237305 C-1.15150099 26.17249107 -2.6920337 25.14671712 -4.23193359 24.12011719 C-8.20197057 24.12011719 -10.49740325 25.91554122 -13.73193359 27.99511719 Z " fill="#16478A" transform="translate(230.23193359375,30.8798828125)"/>
<path d="M0 0 C2.44452208 1.40929742 4.81547531 2.85269442 7.1875 4.375 C7.89527588 4.82343262 8.60305176 5.27186523 9.33227539 5.73388672 C14.91274739 9.27866455 20.46432494 12.86905345 26.00854492 16.47021484 C32.48630493 20.6772324 38.9917022 24.8404187 45.5 29 C53.17300486 33.90510161 60.83581315 38.8246841 68.4753418 43.78173828 C74.73700152 47.84006851 81.02487619 51.85705272 87.3125 55.875 C95.03441797 60.81246912 102.74947181 65.75988955 110.4375 70.75 C111.14366455 71.20745605 111.8498291 71.66491211 112.57739258 72.13623047 C114.04315913 73.08964701 115.49512254 74.06457395 116.93354988 75.05875778 C119.3952898 76.61718308 121.77861465 77.90185555 124.3787365 79.19142532 C136.41882903 85.56162546 136.41882903 85.56162546 139.03460741 91.2498312 C140.64913559 97.71151333 140.25697544 104.32085436 140.04345703 110.92480469 C140.0383731 113.13343894 140.04124267 115.34210357 140.05142212 117.55072021 C140.05656795 123.5194581 139.95109664 129.48162779 139.82509089 135.44884396 C139.71222656 141.69449577 139.70196792 147.94031438 139.68063354 154.18682861 C139.63112102 164.66181384 139.51885622 175.13456182 139.35791016 185.60839844 C139.19239556 196.39082958 139.06513247 207.17260776 138.98876953 217.95605469 C138.98404051 218.62198902 138.97931149 219.28792334 138.97443916 219.9740375 C138.95094653 223.31521789 138.92824095 226.6564027 138.9058249 229.99759054 C138.71789854 257.66678513 138.39784769 285.33309615 138 313 C130.74 313 123.48 313 116 313 C115.99857498 310.92113495 115.99714996 308.8422699 115.99568176 306.70040894 C115.97989569 287.12969665 115.93660105 267.55918371 115.86790943 247.98858452 C115.8332552 237.92660981 115.80790334 227.86477215 115.80444336 217.80273438 C115.80140407 209.03272163 115.78091834 200.26295295 115.73947543 191.49303448 C115.71814052 186.84929028 115.70554732 182.20589311 115.71384621 177.56209946 C115.72138327 173.19035128 115.70557797 168.81930644 115.67193985 164.44768715 C115.66370237 162.8441214 115.66396167 161.24048577 115.67340279 159.63692665 C115.68503314 157.44428852 115.66589927 155.25395239 115.63923645 153.06149292 C115.63647107 151.83550825 115.63370569 150.60952358 115.63085651 149.34638786 C114.78313976 144.84966157 113.23565212 143.2033988 110 140 C106.43913342 138.81304447 103.02668976 138.64904582 99.3125 138.4375 C98.61060547 138.39431641 97.90871094 138.35113281 97.18554688 138.30664062 C95.45724794 138.2008264 93.7286489 138.09993419 92 138 C91.99453156 137.02733437 91.99453156 137.02733437 91.98895264 136.03501892 C91.94705662 129.26981099 91.87766064 122.50527699 91.79248047 115.74047852 C91.76430092 113.21776071 91.74307146 110.69495511 91.72900391 108.17211914 C91.70753367 104.54007109 91.6608589 100.90907534 91.609375 97.27734375 C91.60753204 95.59257179 91.60753204 95.59257179 91.60565186 93.87376404 C91.4851125 87.39052609 91.05079933 83.1701437 87 78 C82.57985618 74.48873954 79.67851748 73.49911199 74.0615387 73.49206543 C73.38756497 73.48582547 72.71359124 73.4795855 72.01919407 73.47315645 C69.77358323 73.45727366 67.52906505 73.46981102 65.28344727 73.48242188 C63.66831838 73.47699856 62.05319443 73.46987473 60.43807983 73.46118164 C56.05988186 73.44296863 51.68206154 73.45000776 47.30385709 73.46269798 C42.71736729 73.4728379 38.13090943 73.46342939 33.54441833 73.45715332 C25.84164639 73.44987907 18.13902793 73.45945801 10.4362793 73.47851562 C1.53843296 73.50027624 -7.35904662 73.49323805 -16.25688404 73.47121 C-23.90294288 73.45304044 -31.54889149 73.45050552 -39.19496495 73.46096468 C-43.75868905 73.46719206 -48.32224095 73.46805624 -52.8859539 73.45481873 C-57.17806607 73.44323843 -61.46970693 73.45132549 -65.76176834 73.47439575 C-67.33429368 73.47967158 -68.90685888 73.47818835 -70.47936821 73.46934509 C-81.46362202 73.2063376 -81.46362202 73.2063376 -91 78 C-95.81889958 83.99028247 -95.60119861 89.80275338 -95.609375 97.27734375 C-95.62591125 98.4438295 -95.64244751 99.61031525 -95.65948486 100.81214905 C-95.70788712 104.52065336 -95.72931967 108.22874777 -95.75 111.9375 C-95.778166 114.45900491 -95.80809431 116.98049079 -95.83984375 119.50195312 C-95.91364428 125.66789454 -95.96533243 131.83372104 -96 138 C-97.62808594 138.03867187 -97.62808594 138.03867187 -99.2890625 138.078125 C-100.73441349 138.13443738 -102.17972444 138.191784 -103.625 138.25 C-104.33785156 138.26417969 -105.05070312 138.27835938 -105.78515625 138.29296875 C-110.89071099 138.52716851 -113.98080129 139.59635424 -118 143 C-120.341279 146.50367309 -120.25969007 149.63827653 -120.2784729 153.78302002 C-120.2842653 154.46430741 -120.2900577 155.1455948 -120.29602563 155.84752727 C-120.3130238 158.12919382 -120.31590193 160.41065807 -120.31884766 162.69238281 C-120.32814597 164.32842505 -120.3383145 165.96446253 -120.34928894 167.60049438 C-120.37661394 172.04225454 -120.39174576 176.48398294 -120.40471697 180.92580509 C-120.42033656 185.56765961 -120.44713051 190.20944916 -120.4727478 194.85125732 C-120.51955635 203.64134279 -120.55629042 212.43144044 -120.58942068 221.22158694 C-120.62762739 231.22878456 -120.67704135 241.23591697 -120.72740483 251.24305964 C-120.83075556 271.82865902 -120.91960822 292.41429926 -121 313 C-127.93 313 -134.86 313 -142 313 C-142.25462442 283.93239986 -142.45093198 254.86506825 -142.56993389 225.79657745 C-142.5811522 223.10982671 -142.59260672 220.42307707 -142.60424805 217.73632812 C-142.60713346 217.0685289 -142.61001888 216.40072967 -142.61299173 215.71269411 C-142.66083079 204.90572395 -142.74754544 194.09939876 -142.84868076 183.29281098 C-142.95162142 172.20063801 -143.01183854 161.10872779 -143.03497344 150.01608992 C-143.04931624 143.78665893 -143.08302485 137.55868966 -143.16303062 131.32972717 C-143.23774044 125.46553581 -143.26071968 119.60340685 -143.24418449 113.73878479 C-143.2472089 111.58765448 -143.26906861 109.43645471 -143.31126022 107.28573608 C-143.61458661 91.02500485 -143.61458661 91.02500485 -139.59955788 85.98937988 C-136.80387123 83.91920139 -134.16194035 82.42872336 -131 81 C-129.73143039 80.20718669 -128.47212624 79.39870901 -127.234375 78.55859375 C-126.07504214 77.84808268 -124.91352709 77.1411216 -123.75 76.4375 C-117.01361469 72.29209565 -110.36927247 68.01728423 -103.75 63.6875 C-102.7695874 63.04627197 -101.7891748 62.40504395 -100.77905273 61.74438477 C-98.80549192 60.45306253 -96.83210203 59.16147902 -94.85888672 57.86962891 C-90.51576151 55.02935112 -86.16453205 52.20160414 -81.8125 49.375 C-80.99724854 48.84527588 -80.18199707 48.31555176 -79.34204102 47.76977539 C-76.08205086 45.6515747 -72.82177763 43.5338099 -69.56152344 41.41601562 C-59.86867887 35.11934552 -50.18049114 28.81564914 -40.5 22.5 C-36.6668275 19.99975332 -32.83346355 17.4998004 -29 15 C-28.04834961 14.37931641 -27.09669922 13.75863281 -26.11621094 13.11914062 C-23.36978101 11.32844189 -20.62251546 9.53903261 -17.875 7.75 C-17.05193359 7.21310547 -16.22886719 6.67621094 -15.38085938 6.12304688 C-13.89078648 5.15343605 -12.39786771 4.18817628 -10.90136719 3.22851562 C-9.31580373 2.20404782 -7.75252926 1.14518718 -6.1953125 0.078125 C-3.50465666 -1.2432647 -2.77835074 -0.92141692 0 0 Z " fill="#FBFAF5" transform="translate(227,56)"/>
<path d="M0 0 C1.6168989 -0.0054247 3.23379285 -0.01254932 4.85067749 -0.02124023 C9.22874931 -0.0394338 13.60644295 -0.03242295 17.98452115 -0.01972389 C22.57147295 -0.00957735 27.15839296 -0.018994 31.74534607 -0.02526855 C39.44633787 -0.03253941 47.14717607 -0.02297125 54.84814453 -0.00390625 C63.74659957 0.01786917 72.64468809 0.01080406 81.54313427 -0.01121187 C89.19004689 -0.02937267 96.83684929 -0.03192111 104.48377651 -0.0214572 C109.04801277 -0.01522699 113.61207682 -0.01437375 118.17630196 -0.02760315 C122.46678298 -0.03917124 126.75679201 -0.03111865 131.04722214 -0.00802612 C132.62016835 -0.00274445 134.19315439 -0.00424358 135.76608467 -0.01307678 C137.91645353 -0.02403801 140.06531798 -0.01026468 142.21559143 0.00964355 C144.01880781 0.01190571 144.01880781 0.01190571 145.8584528 0.01421356 C150.9783339 0.79621586 154.05584192 3.30064182 157.46655273 7.08007812 C159.97956681 10.70998735 160.27779925 13.42029583 160.26757812 17.72338867 C160.26750259 18.78426193 160.26742706 19.84513519 160.26734924 20.93815613 C160.26218796 22.08198257 160.25702667 23.22580902 160.25170898 24.40429688 C160.24958656 26.16251518 160.24958656 26.16251518 160.24742126 27.95625305 C160.24181662 31.7058872 160.2292633 35.45546198 160.21655273 39.20507812 C160.21153833 41.74479081 160.20697532 44.28450442 160.20288086 46.82421875 C160.1926959 53.0553799 160.17312125 59.28641244 160.15405273 65.51757812 C152.23405273 65.51757812 144.31405273 65.51757812 136.15405273 65.51757812 C136.15405273 51.32757813 136.15405273 37.13757813 136.15405273 22.51757812 C89.95405273 22.51757812 43.75405273 22.51757812 -3.84594727 22.51757812 C-3.84594727 36.70757812 -3.84594727 50.89757812 -3.84594727 65.51757812 C-11.76594727 65.51757812 -19.68594727 65.51757812 -27.84594727 65.51757812 C-27.96097245 58.11506854 -28.06044837 50.71568076 -28.12060547 43.31298828 C-28.1456916 40.79693066 -28.17976852 38.28094549 -28.22314453 35.76513672 C-28.28405227 32.14076826 -28.31221747 28.51736644 -28.33422852 24.89257812 C-28.36003494 23.77455811 -28.38584137 22.65653809 -28.41242981 21.50463867 C-28.41455407 15.53949476 -27.87539294 11.27183366 -24.60612488 6.22314453 C-17.37142298 -0.78709377 -9.48811043 -0.0533579 0 0 Z " fill="#00A7AA" transform="translate(158.845947265625,128.482421875)"/>
<path d="M0 0 C46.2 0 92.4 0 140 0 C140 14.19 140 28.38 140 43 C93.8 43 47.6 43 0 43 C0 28.81 0 14.62 0 0 Z " fill="#63F9ED" transform="translate(155,151)"/>
<path d="M0 0 C26.4 0 52.8 0 80 0 C80 31.02 80 62.04 80 94 C78.35 92.35 76.7 90.7 75 89 C73.60023864 87.60830178 72.20045466 86.21662608 70.79998779 84.82563782 C68.67275803 82.71186142 66.54825707 80.59535064 64.42382812 78.47875977 C63.30165989 77.36166551 62.17860254 76.24546373 61.0546875 75.13012695 C59.42474084 73.51226275 57.79800439 71.89123102 56.171875 70.26953125 C55.66775085 69.77056839 55.16362671 69.27160553 54.64422607 68.75752258 C50.05058396 64.16462778 50.05058396 64.16462778 49.88647461 60.38623047 C49.89171143 59.30744629 49.89694824 58.22866211 49.90234375 57.1171875 C49.90556641 55.95058594 49.90878906 54.78398437 49.91210938 53.58203125 C49.92467773 51.74705078 49.92467773 51.74705078 49.9375 49.875 C49.94201172 48.64394531 49.94652344 47.41289062 49.95117188 46.14453125 C49.9629867 43.09630608 49.97945972 40.04817686 50 37 C49.44650879 37.04713135 48.89301758 37.0942627 48.32275391 37.14282227 C45.7578141 37.33259044 43.19434519 37.44769947 40.625 37.5625 C39.75488281 37.63791016 38.88476562 37.71332031 37.98828125 37.79101562 C32.27012964 37.98162068 29.2896413 36.93076018 25 33.09375 C23.31838148 31.41064039 21.65210948 29.71208441 20 28 C18.22153358 26.33666846 16.43762451 24.67913806 14.6484375 23.02734375 C12.88802069 21.33343157 11.13021176 19.63680501 9.375 17.9375 C8.46621094 17.09123047 7.55742187 16.24496094 6.62109375 15.37304688 C5.76386719 14.53708984 4.90664062 13.70113281 4.0234375 12.83984375 C3.24919434 12.10113037 2.47495117 11.36241699 1.67724609 10.60131836 C0 8 0 8 0 0 Z " fill="#01CAB0" transform="translate(240,218)"/>
<path d="M0 0 C26.73 0 53.46 0 81 0 C79.8750301 10.12472911 79.8750301 10.12472911 76.4375 13.125 C75.70789063 13.78242188 74.97828125 14.43984375 74.2265625 15.1171875 C73.49179688 15.73851562 72.75703125 16.35984375 72 17 C71.38898438 17.53882813 70.77796875 18.07765625 70.1484375 18.6328125 C68.89212661 19.73943529 67.62872535 20.8380462 66.359375 21.9296875 C63.21124538 24.69211912 60.13710599 27.53123035 57.0625 30.375 C56.48218018 30.91157227 55.90186035 31.44814453 55.30395508 32.00097656 C52.61983657 34.46683066 52.61983657 34.46683066 50 37 C48.5112814 37.08669432 47.018555 37.10703494 45.52734375 37.09765625 C44.62822266 37.09443359 43.72910156 37.09121094 42.80273438 37.08789062 C41.38444336 37.07532227 41.38444336 37.07532227 39.9375 37.0625 C38.98810547 37.05798828 38.03871094 37.05347656 37.06054688 37.04882812 C34.70696935 37.0370011 32.35351523 37.02052025 30 37 C30.07855225 37.67353516 30.15710449 38.34707031 30.23803711 39.04101562 C32.31680785 59.62873999 32.31680785 59.62873999 27.15234375 66.73046875 C24.08890416 70.18856433 20.67313101 73.21132889 17.13085938 76.16943359 C13.57421526 79.22485495 10.38423053 82.63435085 7.125 86 C5.11137311 88.03552002 3.07685797 90.02790935 1 92 C0.67 92 0.34 92 0 92 C0 61.64 0 31.28 0 0 Z " fill="#01CBB0" transform="translate(130,218)"/>
<path d="M0 0 C3.70482649 1.54914205 6.33047083 4.24461417 9.23632812 6.95556641 C9.88601563 7.49310547 10.53570312 8.03064453 11.20507812 8.58447266 C13.06445312 10.33837891 13.06445312 10.33837891 15.98632812 14.83056641 C15.98632812 19.78056641 15.98632812 24.73056641 15.98632812 29.83056641 C5.09632813 29.83056641 -5.79367188 29.83056641 -17.01367188 29.83056641 C-17.01367188 14.83056641 -17.01367188 14.83056641 -13.87304688 10.04931641 C-12.5409273 8.76933458 -11.16980444 7.52876809 -9.76367188 6.33056641 C-9.08175781 5.67443359 -8.39984375 5.01830078 -7.69726562 4.34228516 C-2.73940596 -0.23049803 -2.73940596 -0.23049803 0 0 Z " fill="#00CDB0" transform="translate(255.013671875,339.16943359375)"/>
<path d="M0 0 C2.08978833 1.14848281 3.44343066 2.36841189 5.0625 4.12109375 C6.97884018 6.19123998 8.69286558 7.91605812 11.04296875 9.48828125 C13.25 10.99609375 13.25 10.99609375 16.8125 14.99609375 C16.8125 19.94609375 16.8125 24.89609375 16.8125 29.99609375 C6.5825 29.99609375 -3.6475 29.99609375 -14.1875 29.99609375 C-15.6977287 13.38357801 -15.6977287 13.38357801 -11.65625 8.09375 C-4.2142188 -0.00752539 -4.2142188 -0.00752539 0 0 Z " fill="#00CDAF" transform="translate(194.1875,339.00390625)"/>
<path d="M0 0 C0 12.21 0 24.42 0 37 C-9.57 37 -19.14 37 -29 37 C-29 29 -29 29 -27.91772461 27.02539062 C-27.41764893 26.57357422 -26.91757324 26.12175781 -26.40234375 25.65625 C-25.85151123 25.13635498 -25.30067871 24.61645996 -24.7331543 24.08081055 C-24.14058838 23.55914307 -23.54802246 23.03747559 -22.9375 22.5 C-21.73260842 21.37297943 -20.52946888 20.24408272 -19.328125 19.11328125 C-18.74869141 18.57783691 -18.16925781 18.04239258 -17.57226562 17.49072266 C-15.64317627 15.66168235 -13.90166744 13.71806751 -12.1875 11.6875 C-2.24440299 0 -2.24440299 0 0 0 Z " fill="#00CDAF" transform="translate(320,332)"/>
<path d="M0 0 C7.71456877 6.61248752 14.80153438 13.4111014 21.359375 21.1640625 C22.95416931 22.94871328 24.64566469 24.47999125 26.4375 26.0625 C29 29 29 29 29 36 C19.43 36 9.86 36 0 36 C0 24.12 0 12.24 0 0 Z " fill="#00CEAE" transform="translate(130,333)"/>
<path d="M0 0 C12.65125127 -1.90012375 12.65125127 -1.90012375 18.04980469 1.16308594 C20.04038867 2.68529722 21.79890731 4.28306147 23.5625 6.0625 C24.12799561 6.62283936 24.69349121 7.18317871 25.27612305 7.76049805 C28.02463865 10.81571122 28.96108512 12.36624338 29.21875 16.5625 C27.65782609 20.9651059 25.47289726 23.01625175 21.9375 25.9375 C21.36966797 26.43056641 20.80183594 26.92363281 20.21679688 27.43164062 C18.82454987 28.63669475 17.41402659 29.82057812 16 31 C9.8863027 27.53519897 3.44000603 23.32349104 0 17 C-1.2855733 11.39354189 -0.65670372 5.65826536 0 0 Z " fill="#01CCAF" transform="translate(180,275)"/>
<path d="M0 0 C1.21897568 16.94714793 1.21897568 16.94714793 -1.5703125 21.64453125 C-3.62520952 23.37517646 -5.65999862 24.68741858 -8 26 C-9.1861989 26.95541125 -10.35543722 27.93258483 -11.5 28.9375 C-12.7375 29.9584375 -12.7375 29.9584375 -14 31 C-27.71970979 20.62801896 -27.71970979 20.62801896 -28.46875 16.27734375 C-27.80643231 11.64663925 -25.65860966 9.39051962 -22.4375 6.125 C-21.86555908 5.54145752 -21.29361816 4.95791504 -20.7043457 4.35668945 C-14.27939352 -1.57011056 -8.37389937 -1.35511235 0 0 Z " fill="#01CCAF" transform="translate(269,275)"/>
<path d="M0 0 C3.10253054 1.19260957 5.14403018 2.90595667 7.453125 5.2578125 C8.071875 5.88300781 8.690625 6.50820312 9.328125 7.15234375 C9.96234375 7.80332031 10.5965625 8.45429688 11.25 9.125 C11.8996875 9.78371094 12.549375 10.44242188 13.21875 11.12109375 C14.81711727 12.74296643 16.41061897 14.3693281 18 16 C14.51850528 19.50045022 11.01976929 22.97707559 7.4375 26.375 C6.50808594 27.26960938 5.57867187 28.16421875 4.62109375 29.0859375 C2 31 2 31 0.05200195 30.81713867 C-2.37064566 29.85240321 -3.63784702 28.70554612 -5.453125 26.83984375 C-6.071875 26.21142578 -6.690625 25.58300781 -7.328125 24.93554688 C-7.96234375 24.27619141 -8.5965625 23.61683594 -9.25 22.9375 C-9.8996875 22.27427734 -10.549375 21.61105469 -11.21875 20.92773438 C-12.8194676 19.29170683 -14.41276193 17.64909088 -16 16 C-12.69640539 12.08755651 -9.38074925 8.24145496 -5.75 4.625 C-5.08484375 3.95726562 -4.4196875 3.28953125 -3.734375 2.6015625 C-2 1 -2 1 0 0 Z " fill="#01CDAF" transform="translate(224,242)"/>
<path d="M0 0 C5.02230086 1.47221435 7.80278222 4.4489651 11.3125 8.125 C12.13717773 8.96998047 12.13717773 8.96998047 12.97851562 9.83203125 C14.32595438 11.21462058 15.66394273 12.60640916 17 14 C15.39289933 18.00348746 12.58204033 20.7152015 9.5625 23.6875 C9.07201172 24.18572266 8.58152344 24.68394531 8.07617188 25.19726562 C5.73314107 27.52764849 4.17816293 28.94061236 1 30 C-1.37432028 27.77048251 -3.72050145 25.513408 -6.0625 23.25 C-6.73861328 22.61578125 -7.41472656 21.9815625 -8.11132812 21.328125 C-8.74619141 20.709375 -9.38105469 20.090625 -10.03515625 19.453125 C-10.6269165 18.88754883 -11.21867676 18.32197266 -11.82836914 17.73925781 C-13 16 -13 16 -12.85546875 13.97265625 C-11.92020658 11.81600147 -10.9607781 10.61464827 -9.27734375 8.984375 C-8.73916016 8.45585937 -8.20097656 7.92734375 -7.64648438 7.3828125 C-7.08251953 6.84398437 -6.51855469 6.30515625 -5.9375 5.75 C-5.36966797 5.19570313 -4.80183594 4.64140625 -4.21679688 4.0703125 C-2.81787531 2.70665786 -1.40980886 1.35239583 0 0 Z " fill="#01CAB0" transform="translate(163,307)"/>
<path d="M0 0 C3.19610524 0.27971822 4.82690293 1.46256281 7.015625 3.72265625 C7.80839844 4.52993164 7.80839844 4.52993164 8.6171875 5.35351562 C9.15601563 5.91748047 9.69484375 6.48144531 10.25 7.0625 C10.80429687 7.63033203 11.35859375 8.19816406 11.9296875 8.78320312 C13.29334214 10.18212469 14.64760417 11.59019114 16 13 C14.48357123 16.59844449 12.35026558 18.85713143 9.5625 21.5625 C8.78003906 22.32691406 7.99757813 23.09132813 7.19140625 23.87890625 C6.46824219 24.57886719 5.74507813 25.27882813 5 26 C3.99780943 26.99780462 2.99678975 27.99680002 2 29 C-1.83834663 26.8940045 -4.66182448 24.52909978 -7.6875 21.375 C-10.5445335 18.28109484 -10.5445335 18.28109484 -14 16 C-14 13 -14 13 -12.4609375 11.38671875 C-11.77257812 10.82597656 -11.08421875 10.26523437 -10.375 9.6875 C-7.63423529 7.41644232 -5.14341058 5.13275164 -2.75 2.5 C-1.8425 1.675 -0.935 0.85 0 0 Z " fill="#01CDAF" transform="translate(283,308)"/>
<path d="M0 0 C13.55835408 9.70420267 13.55835408 9.70420267 14.453125 14.35546875 C13.80712889 18.12563572 11.97432005 19.62016504 9.25 22.25 C8.36828125 23.12140625 7.4865625 23.9928125 6.578125 24.890625 C2.6826484 28.07783313 2.6826484 28.07783313 0 28 C-2.69140625 26.26953125 -2.69140625 26.26953125 -5.5625 23.8125 C-6.51253906 23.01457031 -7.46257812 22.21664063 -8.44140625 21.39453125 C-10.61075638 19.36428449 -12.33168589 17.44349036 -14 15 C-12.40153531 10.75091664 -9.1869608 8.17774261 -5.875 5.25 C-5.31167969 4.74339844 -4.74835938 4.23679687 -4.16796875 3.71484375 C-2.78348469 2.47115468 -1.39238512 1.23483695 0 0 Z " fill="#01CCAF" transform="translate(224,308)"/>
<path d="M0 0 C26.4 0 52.8 0 80 0 C80 31.02 80 62.04 80 94 C78.35 92.35 76.7 90.7 75 89 C75.48608231 88.67295578 75.97216461 88.34591156 76.47297668 88.00895691 C78.83047998 84.9074178 78.43922835 81.60192025 78.43237305 77.85668945 C78.4425647 77.02719788 78.45275635 76.1977063 78.46325684 75.34307861 C78.49346498 72.59974482 78.50266462 69.85675974 78.51171875 67.11328125 C78.52855965 65.21183606 78.54670909 63.31040205 78.56611633 61.40898132 C78.61368642 56.40310151 78.64345041 51.39726699 78.66955566 46.39123535 C78.70455952 40.38557381 78.7615921 34.38008627 78.81494904 28.37456512 C78.89354508 19.24973183 78.94408859 10.12512758 79 1 C52.93 1 26.86 1 0 1 C0 0.67 0 0.34 0 0 Z " fill="#01DCA5" transform="translate(240,218)"/>
<path d="M0 0 C6.93 0 13.86 0 21 0 C21 7.92 21 15.84 21 24 C20.34 24.33 19.68 24.66 19 25 C19 17.41 19 9.82 19 2 C12.73 1.67 6.46 1.34 0 1 C0 0.67 0 0.34 0 0 Z " fill="#0D57F3" transform="translate(269,255)"/>
<path d="M0 0 C0.66 0.33 1.32 0.66 2 1 C-1.9419417 5.88049925 -6.11950075 10.0580583 -11 14 C-6.72706118 19.23435005 -2.18419194 23.67106815 3 28 C2.34 28.66 1.68 29.32 1 30 C-1.37432028 27.77048251 -3.72050145 25.513408 -6.0625 23.25 C-6.73861328 22.61578125 -7.41472656 21.9815625 -8.11132812 21.328125 C-8.74619141 20.709375 -9.38105469 20.090625 -10.03515625 19.453125 C-10.6269165 18.88754883 -11.21867676 18.32197266 -11.82836914 17.73925781 C-13 16 -13 16 -12.85546875 13.97265625 C-11.92020658 11.81600147 -10.9607781 10.61464827 -9.27734375 8.984375 C-8.73916016 8.45585937 -8.20097656 7.92734375 -7.64648438 7.3828125 C-7.08251953 6.84398437 -6.51855469 6.30515625 -5.9375 5.75 C-5.36966797 5.19570313 -4.80183594 4.64140625 -4.21679688 4.0703125 C-2.81787531 2.70665786 -1.40980886 1.35239583 0 0 Z " fill="#01D9A7" transform="translate(163,307)"/>
<path d="M0 0 C0.33 0 0.66 0 1 0 C1 5.94 1 11.88 1 18 C0.01 18.33 -0.98 18.66 -2 19 C-1.84660156 18.32582031 -1.69320313 17.65164063 -1.53515625 16.95703125 C-0.91516143 13.53122048 -0.6647426 10.16106553 -0.4375 6.6875 C-0.35371094 5.43324219 -0.26992188 4.17898438 -0.18359375 2.88671875 C-0.12300781 1.93410156 -0.06242187 0.98148437 0 0 Z " fill="#F4F5F2" transform="translate(389,361)"/>
<path d="M0 0 C0.33 0.99 0.66 1.98 1 3 C-1.97 5.475 -1.97 5.475 -5 8 C-5.66 7.67 -6.32 7.34 -7 7 C-4.69 4.69 -2.38 2.38 0 0 Z " fill="#0B56F6" transform="translate(209,293)"/>
</svg>
